<?xml version="1.0" encoding="UTF-8"?>
<svg width="20px" height="24px" viewBox="0 0 20 24" version="1.1" xmlns="http://www.w3.org/2000/svg" xmlns:xlink="http://www.w3.org/1999/xlink">
    <!-- Generator: Sketch 63.1 (92452) - https://sketch.com -->
    <title>安全组1649324742781备份 6</title>
    <desc>Created with Sketch.</desc>
    <g id="H5认证安全提醒优化" stroke="none" stroke-width="1" fill="none" fill-rule="evenodd">
        <g id="安全提示" transform="translate(-1014.000000, -542.000000)">
            <rect fill="#EEF0F5" x="0" y="0" width="2966" height="930"></rect>
            <rect id="矩形备份-14" fill="#FFFFFF" x="959" y="112" width="375" height="667"></rect>
            <g id="安全组1649324742781备份-6" transform="translate(1014.000000, 542.000000)" fill="#4CB697" fill-rule="nonzero">
                <g id="XMLID_2458_">
                    <g id="XMLID_2459_">
                        <path d="M9.95121951,1.32 C11.2390244,1.74 15.5121951,3.3 18.3219512,5.88 C18.9658537,14.82 16.5073171,19.74 10.0097561,22.74 C3.2195122,19.08 0.585365854,13.8 1.69756098,6.06 C4.27317073,3.36 8.66341463,1.74 9.95121951,1.32 M9.95121951,0.12 C9.83414634,0.12 9.71707317,0.12 9.6,0.18 C8.31219512,0.6 3.68780488,2.34 0.87804878,5.22 C0.702439024,5.4 0.585365854,5.64 0.526829268,5.88 C-0.76097561,15 3.10243902,20.34 9.48292683,23.76 C9.65853659,23.88 9.83414634,23.88 10.0097561,23.88 C10.1853659,23.88 10.3609756,23.82 10.4780488,23.76 C17.8536585,20.4 20.1365854,14.76 19.4926829,5.76 C19.4926829,5.46 19.3170732,5.16 19.0829268,4.92 C16.097561,2.22 11.5902439,0.6 10.302439,0.12 C10.1853659,0.12 10.0682927,0.12 9.95121951,0.12 L9.95121951,0.12 Z" id="XMLID_2460_"></path>
                    </g>
                </g>
                <path d="M13.6934281,9.75975359 L9.44219922,14.1334702 C9.20269337,14.3798768 8.84343459,14.3798768 8.60392874,14.1334702 L6.32862315,11.7926078 C6.0891173,11.5462012 6.0891173,11.1765914 6.32862315,10.9301848 C6.568129,10.6837782 6.92738778,10.6837782 7.16689363,10.9301848 L9.02306398,12.8398357 L12.8551576,8.8973306 C13.0946634,8.65092402 13.4539222,8.65092402 13.6934281,8.8973306 C13.9329339,9.14373717 13.9329339,9.57494867 13.6934281,9.75975359 Z" id="XMLID_2455_"></path>
            </g>
        </g>
    </g>
</svg>